<svg xmlns="http://www.w3.org/2000/svg" fill="none" viewBox="0 0 200 200">
  <path fill="#fff" d="M0 0h200v200H0z"/>
  <mask id="a" fill="#fff">
    <rect width="190" height="190" x="5" y="5" rx="6"/>
  </mask>
  <rect width="190" height="190" x="5" y="5" stroke="#00B7FF" stroke-width="14" mask="url(#a)" rx="6"/>
  <path fill="#FF2F00" stroke="#FF9500" stroke-width="4" d="m79.775 134.441.006.004.006.004c3.627 2.399 8.044 3.535 13.135 3.535 5.46 0 9.879-.921 12.889-3.112 3.356-2.403 4.658-6.851 4.658-12.403 0-5.396-1.678-9.662-5.51-12.14-3.45-2.314-7.886-3.376-13.13-3.376-5.914 0-11.676.37-17.284 1.11-5.222.64-10.24 1.397-15.053 2.271l-8.398-6.933V44h91.468v32.953h-20.765c-2.617-2.225-5.671-4.022-9.141-5.401-3.82-1.57-8.119-2.333-12.86-2.333H85.578l-.12 1.872-1.172 18.36-.206 3.238 2.985-1.27c2.313-.985 4.895-1.782 7.754-2.384l.017-.003.016-.004c2.814-.642 5.764-.966 8.852-.966 6.323 0 12.35.638 18.084 1.906l.003.001c5.742 1.26 10.784 3.264 15.15 5.993l.011.007.012.007c4.361 2.646 7.766 6.081 10.249 10.317l.004.007.005.007c2.487 4.161 3.779 9.258 3.779 15.381 0 7.397-1.433 13.585-4.205 18.644-2.808 5.072-6.667 9.204-11.604 12.413l-.007.005c-4.936 3.24-10.702 5.656-17.327 7.224-6.607 1.525-13.667 2.292-21.185 2.292-9.14 0-17.609-.899-25.413-2.684-7.329-1.688-14.048-3.823-20.165-6.4v-26.135h20.42a40.256 40.256 0 0 0 8.261 7.394Z"/>
</svg>
